<?xml version="1.0" encoding="utf-8"?>
<!-- Generator: Adobe Illustrator 16.0.0, SVG Export Plug-In . SVG Version: 6.00 Build 0)  -->
<!DOCTYPE svg PUBLIC "-//W3C//DTD SVG 1.1//EN" "http://www.w3.org/Graphics/SVG/1.1/DTD/svg11.dtd">
<svg version="1.1" id="Layer_1" xmlns="http://www.w3.org/2000/svg" xmlns:xlink="http://www.w3.org/1999/xlink" x="0px" y="0px"
	 width="256px" height="256px" viewBox="0 0 256 256" enable-background="new 0 0 256 256" xml:space="preserve">
<rect width="256" height="256"/>
<g>
	<g>
		
			<linearGradient id="SVGID_1_" gradientUnits="userSpaceOnUse" x1="-149.8887" y1="145.5996" x2="-43.2454" y2="316.2645" gradientTransform="matrix(1 0 0 -1 214.5 348)">
			<stop  offset="0" style="stop-color:#FAC85C"/>
			<stop  offset="0.13" style="stop-color:#9F5725"/>
			<stop  offset="0.48" style="stop-color:#FCF5AE"/>
			<stop  offset="0.58" style="stop-color:#8F4A21"/>
			<stop  offset="0.82" style="stop-color:#FFF386"/>
			<stop  offset="0.91" style="stop-color:#A04C26"/>
			<stop  offset="1" style="stop-color:#FFC113"/>
		</linearGradient>
		<polygon fill="url(#SVGID_1_)" points="127.995,227.666 113.127,220.088 107.305,216.743 101.81,213.309 96.529,209.695 
			91.57,205.908 86.83,201.945 82.518,197.895 78.313,193.665 74.436,189.35 70.877,184.945 67.538,180.45 64.411,175.781 
			61.609,171.115 59.021,166.361 56.543,161.424 54.389,156.581 52.447,151.562 50.616,146.539 49.003,141.521 47.6,136.414 
			46.306,131.217 45.229,126.107 44.26,120.91 43.504,115.626 42.858,110.425 42.21,105.141 41.777,99.859 41.457,94.573 
			41.241,89.288 41.135,84.088 41.135,78.806 41.135,63.565 55.037,59.779 57.083,59.257 59.239,58.635 61.396,57.93 63.44,57.313 
			65.599,56.697 67.645,55.993 69.801,55.286 71.846,54.584 73.897,53.879 75.945,53.086 78.101,52.379 80.145,51.59 82.193,50.795 
			84.244,50.004 86.289,49.123 88.337,48.328 90.384,47.445 92.433,46.569 94.372,45.687 96.419,44.805 98.472,43.835 
			100.407,42.956 102.456,41.986 104.502,41.019 106.443,40.049 108.383,38.991 110.432,38.026 112.373,36.966 114.311,35.908 
			116.361,34.855 127.995,28.333 139.636,34.855 141.579,35.908 143.518,36.966 145.564,38.026 147.508,38.991 149.443,40.049 
			151.488,41.019 153.436,41.986 155.479,42.956 157.418,43.835 159.471,44.805 161.516,45.687 163.559,46.569 165.502,47.445 
			167.546,48.328 169.6,49.123 171.645,50.004 173.699,50.795 175.738,51.59 177.895,52.295 179.939,53.086 181.99,53.79 
			184.041,54.584 186.199,55.286 188.246,55.993 190.4,56.606 192.449,57.313 194.602,57.93 196.646,58.548 198.803,59.165 
			200.96,59.779 214.752,63.565 214.865,78.716 214.752,84.002 214.645,89.288 214.428,94.573 214.105,99.859 213.68,105.141 
			213.143,110.425 212.389,115.626 211.629,120.815 210.659,126.015 209.585,131.217 208.288,136.414 206.883,141.521 
			205.27,146.539 203.544,151.562 201.501,156.581 199.342,161.424 196.975,166.275 194.275,171.115 191.477,175.781 
			188.352,180.368 185.009,184.945 181.452,189.35 177.568,193.665 173.479,197.895 169.061,201.945 164.314,205.908 
			159.357,209.695 154.189,213.309 148.581,216.743 142.76,220.088 		"/>
		
			<linearGradient id="SVGID_2_" gradientUnits="userSpaceOnUse" x1="-128.0708" y1="312.8662" x2="-24.1594" y2="146.5731" gradientTransform="matrix(1 0 0 -1 214.5 348)">
			<stop  offset="0" style="stop-color:#FAC85C"/>
			<stop  offset="0.13" style="stop-color:#9F5725"/>
			<stop  offset="0.48" style="stop-color:#FCF5AE"/>
			<stop  offset="0.58" style="stop-color:#8F4A21"/>
			<stop  offset="0.82" style="stop-color:#FFF386"/>
			<stop  offset="0.91" style="stop-color:#A04C26"/>
			<stop  offset="1" style="stop-color:#FFC113"/>
		</linearGradient>
		<polygon fill="url(#SVGID_2_)" points="127.995,225.286 114.417,218.416 108.705,215.154 103.318,211.727 98.146,208.195 
			93.292,204.502 88.659,200.624 84.35,196.57 80.254,192.434 76.48,188.203 72.926,183.889 69.692,179.395 66.568,174.896 
			63.766,170.236 61.178,165.572 58.808,160.725 56.652,155.879 54.713,151.03 52.987,146.012 51.371,141.081 49.97,135.975 
			48.677,130.861 47.6,125.754 46.738,120.645 45.875,115.449 45.229,110.25 44.689,104.964 44.26,99.769 43.934,94.485 
			43.718,89.288 43.61,84.002 43.504,78.806 43.61,64.979 55.79,61.718 57.946,61.1 60.103,60.484 62.146,59.867 64.304,59.165 
			66.458,58.548 68.507,57.842 70.662,57.131 72.818,56.431 74.866,55.641 77.021,54.936 79.07,54.142 81.114,53.349 83.271,52.556 
			85.317,51.763 87.367,50.97 89.417,50.091 91.464,49.21 93.51,48.328 95.56,47.445 97.603,46.569 99.651,45.598 101.701,44.63 
			103.643,43.661 105.688,42.691 107.736,41.722 109.675,40.666 111.723,39.698 113.662,38.64 115.712,37.58 117.653,36.436 
			127.995,30.715 138.234,36.436 140.174,37.58 142.221,38.64 144.164,39.698 146.214,40.666 148.258,41.722 150.199,42.691 
			152.248,43.661 154.294,44.63 156.234,45.598 158.281,46.479 160.328,47.445 162.381,48.328 164.424,49.21 166.467,50.091 
			168.518,50.88 170.674,51.763 172.729,52.556 174.773,53.349 176.818,54.142 178.975,54.936 181.021,55.641 183.175,56.344 
			185.229,57.049 187.381,57.752 189.43,58.458 191.586,59.165 193.732,59.779 195.895,60.394 197.939,61.01 200.098,61.628 
			212.275,64.979 212.389,78.716 212.389,84.002 212.167,89.201 211.952,94.485 211.629,99.769 211.193,104.964 210.659,110.159 
			210.01,115.355 209.256,120.556 208.288,125.754 207.208,130.861 205.915,135.975 204.512,140.99 203.008,146.012 
			201.169,150.945 199.236,155.879 197.08,160.725 194.709,165.572 192.123,170.236 189.32,174.896 186.303,179.395 
			182.963,183.889 179.408,188.203 175.637,192.434 171.535,196.57 167.229,200.624 162.706,204.414 157.742,208.195 
			152.674,211.727 147.18,215.154 141.471,218.416 		"/>
		
			<linearGradient id="SVGID_3_" gradientUnits="userSpaceOnUse" x1="-139.3213" y1="159.0879" x2="-51.9803" y2="298.8629" gradientTransform="matrix(1 0 0 -1 214.5 348)">
			<stop  offset="0" style="stop-color:#FAC85C"/>
			<stop  offset="0.13" style="stop-color:#9F5725"/>
			<stop  offset="0.48" style="stop-color:#FCF5AE"/>
			<stop  offset="0.58" style="stop-color:#8F4A21"/>
			<stop  offset="0.82" style="stop-color:#FFF386"/>
			<stop  offset="0.91" style="stop-color:#A04C26"/>
			<stop  offset="1" style="stop-color:#FFC113"/>
		</linearGradient>
		<path fill="url(#SVGID_3_)" d="M127.995,211.186c-59.381-28.884-70.48-83.139-69.727-137.49
			c24.25-6.605,47.527-16.028,69.727-28.448c22.091,12.42,45.372,21.843,69.733,28.357
			C198.369,128.046,187.381,182.302,127.995,211.186z"/>
		
			<linearGradient id="SVGID_4_" gradientUnits="userSpaceOnUse" x1="-98.9902" y1="223.2168" x2="-168.6681" y2="140.1781" gradientTransform="matrix(1 0 0 -1 214.5 348)">
			<stop  offset="0" style="stop-color:#231F20"/>
			<stop  offset="0.1355" style="stop-color:#292526"/>
			<stop  offset="0.321" style="stop-color:#393638"/>
			<stop  offset="0.5354" style="stop-color:#545355"/>
			<stop  offset="0.7695" style="stop-color:#7A7A7D"/>
			<stop  offset="1" style="stop-color:#A5A8AB"/>
		</linearGradient>
		<polygon fill="url(#SVGID_4_)" points="127.995,208.292 124.118,206.261 119.16,203.441 114.311,200.445 109.89,197.361 
			105.584,194.1 101.592,190.757 97.823,187.232 94.266,183.624 90.923,179.925 87.907,176.139 84.997,172.174 82.303,168.203 
			79.823,164.073 77.453,159.844 75.299,155.527 73.357,151.205 71.632,146.714 70.018,142.227 68.507,137.643 67.214,132.977 
			66.136,128.221 65.06,123.465 64.195,118.617 63.44,113.772 62.796,108.843 62.255,103.91 61.931,98.971 61.609,93.957 
			61.396,88.937 61.287,83.911 61.178,78.806 61.178,75.459 61.502,75.369 63.766,74.753 66.136,74.05 68.399,73.342 70.662,72.728 
			72.926,71.937 75.188,71.226 77.453,70.523 79.717,69.734 81.871,68.943 84.132,68.145 86.397,67.355 88.659,66.474 
			90.817,65.681 93.08,64.8 95.235,63.918 97.39,62.949 99.651,62.067 101.81,61.1 103.961,60.131 106.119,59.165 108.383,58.191 
			110.537,57.224 112.693,56.167 114.743,55.111 116.897,54.052 119.052,52.998 121.208,51.854 123.254,50.795 125.411,49.651 
			127.566,48.507 127.995,48.242 128.428,48.507 130.477,49.651 132.634,50.795 134.786,51.854 136.827,52.998 138.986,54.052 
			141.146,55.111 143.305,56.167 145.457,57.224 147.609,58.191 149.766,59.165 151.918,60.131 154.08,61.1 156.342,62.067 
			158.494,62.949 160.652,63.828 162.918,64.8 165.072,65.595 167.33,66.474 169.489,67.265 171.756,68.145 174.018,68.943 
			176.284,69.734 178.545,70.439 180.701,71.226 182.963,71.937 185.229,72.641 187.486,73.342 189.859,74.05 192.123,74.663 
			194.386,75.369 194.709,75.459 194.709,78.806 194.709,83.829 194.492,88.937 194.275,93.957 194.064,98.887 193.627,103.91 
			193.09,108.843 192.449,113.772 191.689,118.617 190.826,123.465 189.859,128.221 188.672,132.977 187.381,137.643 
			185.873,142.227 184.252,146.714 182.529,151.205 180.589,155.527 178.438,159.844 176.172,164.073 173.699,168.203 171,172.174 
			168.086,176.139 164.96,179.925 161.621,183.624 158.064,187.232 154.294,190.757 150.303,194.1 146.1,197.361 141.579,200.445 
			136.827,203.441 131.766,206.261 		"/>
		
			<linearGradient id="SVGID_5_" gradientUnits="userSpaceOnUse" x1="-55.7949" y1="222.4014" x2="-194.6925" y2="207.8027" gradientTransform="matrix(1 0 0 -1 214.5 348)">
			<stop  offset="0" style="stop-color:#231F20"/>
			<stop  offset="0.2538" style="stop-color:#403E3F"/>
			<stop  offset="0.806" style="stop-color:#8A8B8E"/>
			<stop  offset="1" style="stop-color:#A5A8AB"/>
		</linearGradient>
		<path fill="url(#SVGID_5_)" d="M127.995,200.624c-16.488-8.46-28.879-19.022-38.902-32.592
			c-15.627-23.249-20.479-49.15-21.34-75.224c0.109-8.453-2.262-11.359,10.56-15.414c13.689-4.313,27.052-9.867,39.66-16.205
			c11.207-5.725,9.27-5.374,20.585,0.263c12.61,6.43,26.186,11.889,40.088,16.209c10.891,3.433,9.916,2.905,9.916,12.684
			c0.217,26.948-5.496,53.646-21.771,77.688C156.779,181.602,144.484,192.164,127.995,200.624z"/>
		
			<linearGradient id="SVGID_6_" gradientUnits="userSpaceOnUse" x1="-82.4585" y1="218.6152" x2="-82.4585" y2="144.0343" gradientTransform="matrix(1 0 0 -1 214.5 348)">
			<stop  offset="0" style="stop-color:#231F20"/>
			<stop  offset="1" style="stop-color:#59595C"/>
		</linearGradient>
		<path fill="url(#SVGID_6_)" d="M193.956,99.592c-35.133,2.648-74.473,14.446-110.896,35.062
			c-4.421,2.556-8.732,5.188-12.934,7.841l1.506,4.22l1.726,4.491l1.942,4.321l2.154,4.316l2.37,4.229l2.479,4.13l2.694,3.971
			l2.91,3.965l3.016,3.786l3.343,3.699l3.557,3.608l3.769,3.523l3.992,3.344l4.306,3.262l4.421,3.084l4.85,2.996l4.958,2.818
			l3.877,2.031l3.771-2.031l5.062-2.818l4.752-2.996l4.521-3.084l4.203-3.262l3.991-3.344l3.771-3.523l3.558-3.608l3.339-3.699
			l3.126-3.786l2.914-3.965l2.699-3.971l2.473-4.13l2.265-4.229l2.152-4.316l1.941-4.321l1.722-4.491l1.621-4.486l1.508-4.586
			l1.291-4.664l1.188-4.756l0.967-4.755l0.863-4.849l0.76-4.844l0.641-4.93l0.537-4.933L193.956,99.592z"/>
		
			<linearGradient id="SVGID_7_" gradientUnits="userSpaceOnUse" x1="-100.75" y1="219.6006" x2="-134.6455" y2="158.4515" gradientTransform="matrix(1 0 0 -1 214.5 348)">
			<stop  offset="0" style="stop-color:#231F20"/>
			<stop  offset="1" style="stop-color:#59595C"/>
		</linearGradient>
		<path fill="url(#SVGID_7_)" d="M102.562,190.407l-3.661-3.435l-3.56-3.613l-3.34-3.691l-3.126-3.795l-2.802-3.967l-2.692-3.959
			l-2.479-4.145l-2.371-4.144l-2.159-4.312l-1.938-4.404l-1.725-4.405l-1.617-4.581l-1.508-4.578l-1.294-4.664l-1.078-4.76
			l-1.078-4.758l-0.863-4.842l-0.753-4.846l-0.646-4.937l-0.541-5.017l-0.43-5.021l-0.214-5.017l-0.214-5.023l-0.22-5.109v-5.109
			v-2.381l1.511-0.352l2.261-0.706l2.372-0.704l2.263-0.702l2.264-0.707l2.374-0.791l2.261-0.71l2.263-0.787l2.263-0.794
			l2.373-0.792l2.26-0.883l2.264-0.791l2.154-0.883l2.265-0.875l2.26-0.883l2.265-0.972l2.263-0.969l2.156-0.878l2.262-0.969
			l2.154-1.057l2.266-0.967l2.157-1.059l2.156-1.061l2.262-1.055l2.153-1.058l2.157-1.052l2.155-1.146l2.156-1.146l2.156-1.145
			l1.613-0.881l1.51,0.881l2.154,1.145l2.154,1.146l2.16,1.146l2.26,1.052l2.152,1.058l2.164,1.055l2.152,1.061l2.268,1.059
			l2.15,0.967l2.266,0.968l2.156,1.058l2.256,0.878l2.161,0.969l2.26,0.881l2.261,0.974l2.265,0.875l2.27,0.794l2.265,0.88
			l2.258,0.795l2.264,0.88l2.268,0.794l2.259,0.787l2.265,0.71l2.374,0.791l2.265,0.707l2.366,0.702l2.267,0.704l2.375,0.619
			l1.393,0.438v2.381v5.109l-0.105,5.017l-0.213,5.116l-0.326,5.017l-0.428,5.021l-0.539,4.93l-0.647,4.935l-0.754,4.935
			l-0.867,4.842l-0.968,4.758l-1.186,4.76l-1.291,4.664l-1.508,4.578l-1.62,4.581l-1.723,4.405l-1.938,4.404l-2.154,4.229
			l-2.267,4.226l-2.479,4.144l-2.693,3.96l-2.906,3.967l-3.125,3.795l-3.344,3.69l-3.451,3.613l-3.769,3.436l-3.99,3.347
			l-4.312,3.261l-4.416,3.079l-4.744,2.997l-5.064,2.817l-2.804,1.499l-2.906-1.499l-5.067-2.817l-4.742-2.997l-4.419-3.079
			l-4.311-3.261L102.562,190.407L102.562,190.407z M127.995,209.079l3.771-1.935l5.062-2.908l4.863-3l4.522-3.172l4.31-3.25
			l4.097-3.438l3.769-3.519l3.561-3.616l3.344-3.792l3.227-3.875l2.914-3.965l2.692-4.047l2.478-4.147l2.373-4.22l2.16-4.317
			l1.934-4.496l1.832-4.489l1.619-4.582l1.51-4.576l1.293-4.758l1.187-4.757l0.97-4.848l0.858-4.844l0.754-4.93l0.644-4.93
			l0.543-5.025l0.434-5.019l0.322-5.104l0.218-5.023l0.099-5.109l0.113-5.109l-0.113-3.438l-0.203-0.087l-2.373-0.617l-2.264-0.702
			l-2.375-0.621l-2.26-0.7l-2.262-0.797l-2.264-0.703l-2.373-0.795l-2.266-0.702l-2.261-0.795l-2.265-0.793l-2.265-0.875
			l-2.155-0.797l-2.264-0.877l-2.261-0.883l-2.267-0.879l-2.151-0.97l-2.265-0.879l-2.156-0.974l-2.264-0.966l-2.154-0.97
			l-2.156-0.968l-2.264-1.06l-2.157-1.054l-2.151-1.056L139.1,53.26l-2.156-1.056l-2.154-1.146l-2.152-1.145l-2.156-1.144
			l-2.048-1.144l-0.433-0.266l-0.429,0.266l-2.155,1.144l-2.157,1.144l-2.155,1.145l-2.154,1.146l-2.154,1.056l-2.156,1.061
			l-2.154,1.056l-2.157,1.054l-2.156,1.06l-2.263,0.968l-2.156,0.97l-2.262,0.966l-2.158,0.974l-2.259,0.97l-2.156,0.879
			l-2.263,0.879L90.39,64.98l-2.154,0.877l-2.264,0.797l-2.263,0.875l-2.263,0.793l-2.264,0.795l-2.263,0.79l-2.265,0.707
			l-2.263,0.793l-2.37,0.707l-2.265,0.7l-2.262,0.705l-2.369,0.618l-2.265,0.704l-0.324,0.09v3.349v5.109l0.105,5.109l0.219,5.107
			l0.32,5.021l0.431,5.019l0.538,5.025l0.649,4.93l0.752,4.93l0.863,4.937l1.08,4.755l1.077,4.756l1.399,4.758l1.404,4.672
			l1.614,4.576l1.832,4.49l1.941,4.405l2.155,4.317l2.369,4.22l2.478,4.147l2.698,4.138l3.017,3.874l3.122,3.875l3.341,3.792
			l3.559,3.616l3.773,3.519l4.094,3.438l4.31,3.25l4.527,3.172l4.85,3.001l5.066,2.907L127.995,209.079z"/>
	</g>
	<g>
		
			<linearGradient id="SVGID_8_" gradientUnits="userSpaceOnUse" x1="-142.6099" y1="220.8906" x2="-41.0889" y2="220.8906" gradientTransform="matrix(1 0 0 -1 214.5 348)">
			<stop  offset="0" style="stop-color:#FAC85C"/>
			<stop  offset="0.13" style="stop-color:#9F5725"/>
			<stop  offset="0.48" style="stop-color:#FCF5AE"/>
			<stop  offset="0.58" style="stop-color:#8F4A21"/>
			<stop  offset="0.82" style="stop-color:#FFF386"/>
			<stop  offset="0.91" style="stop-color:#A04C26"/>
			<stop  offset="1" style="stop-color:#FFC113"/>
		</linearGradient>
		<path fill="url(#SVGID_8_)" d="M139.199,95.055c-1.904-1.042-3.318-2.294-4.225-3.754c-0.92-1.456-1.375-2.881-1.375-4.273
			c0-0.561,0.121-0.848,0.369-0.848c0.482,2.437,1.161,4.239,2.032,5.415c0.871,1.18,2.185,2.178,3.922,3.003
			c2.281,1.088,4.24,1.372,5.915,0.853c1.941-0.61,3.671-1.942,5.167-3.989c1.499-2.042,2.392-4.324,2.679-6.851
			c-5.51-2.872-11.358-4.308-17.554-4.308c-4.729,0-9.207,0.847-13.425,2.552c1.46,1.168,2.659,2.519,3.583,4.041
			c0.944,1.523,1.406,2.853,1.406,3.987c0,0.776-0.309,1.168-0.923,1.168c-3.075,0-4.869-2.893-5.412-8.679
			c-4.577,2.217-7.949,5.479-10.104,9.789c-0.525,1.088-1.128,2.913-1.824,5.485c-0.362,1.389-0.54,3.047-0.54,4.96
			c0,7.876,2.812,14.079,8.45,18.608l0.674,0.584c0,0.217-0.115,0.327-0.363,0.327c-0.324,0-1.322-0.773-2.981-2.32
			c-1.67-1.54-3.168-3.865-4.503-6.948c-1.338-3.092-2.009-6.701-2.009-10.837c0-1.787,0.161-3.33,0.487-4.639
			c0.523-2.083,1.157-3.868,1.885-5.346c2.233-4.484,5.562-8.056,9.981-10.712c-3.449-2.044-8.277-3.067-14.476-3.067
			c-9.117,0-16.721,2.642-22.821,7.931c-6.091,5.289-9.143,12.048-9.143,20.278c0,8.916,3.595,15.725,10.78,20.427
			c0.399-3.696,1.512-6.812,3.337-9.339c-2.552-2.256-3.833-5.374-3.833-9.333c0-0.347,0.341-0.52,1.005-0.52
			c0.71,0,1.064,0.529,1.064,1.598c0,3.156,0.835,5.691,2.487,7.604c1.537-2.218,3.369-3.938,5.494-5.155
			c2.124-1.216,4.181-1.829,6.156-1.829c4.574,0,6.861,1.829,6.861,5.485c0,1.782-0.805,3.189-2.401,4.205
			c-1.602,1.024-3.538,1.538-5.82,1.538c-4.416,0-7.863-0.979-10.335-2.941c-1.87,3.044-2.865,6.173-2.982,9.385
			c2.797,1.653,5.919,2.692,9.364,3.124c1.059,0.173,1.592,0.363,1.592,0.585l-1.097,0.26c-2.717,0-6.011-0.979-9.858-2.933
			c0.079,3.907,1.299,7.022,3.649,9.339c2.345,2.329,5.067,3.483,8.157,3.483c0.449,0,1.358-0.152,2.734-0.452l0.369,0.26
			c0,0.229-0.399,0.432-1.189,0.633c-0.786,0.178-1.59,0.274-2.411,0.274c-3.646,0-6.611-1.233-8.883-3.714
			c-2.271-2.483-3.398-5.792-3.398-9.928v-0.523c-4.042-2.215-7.224-5.322-9.55-9.335c-2.318-4.001-3.474-8.572-3.474-13.706
			c0-7.792,3.397-14.315,10.219-19.587c6.813-5.262,14.498-7.894,23.068-7.894c6.898,0,12.252,1.152,16.062,3.459v-1.242
			c0-3.443,0.765-6.486,2.287-9.11c1.52-2.622,3.724-4.591,6.602-5.906c0.326-0.736,0.688-1.106,1.097-1.106
			c0.291,0,0.526,0.083,0.737,0.246l0.479-0.246c0.195-0.66,0.586-0.981,1.16-0.981l0.728,0.392l0.491-0.13
			c0.238-0.951,0.709-1.439,1.398-1.439c0.686,0,1.17,0.488,1.463,1.439h0.541c0.285-0.39,0.569-0.584,0.854-0.584
			c0.565,0,0.937,0.243,1.097,0.715l0.551,0.133l0.484-0.263c0.32,0,0.688,0.309,1.092,0.914c3.49,1.307,6.389,3.573,8.67,6.795
			c2.295,3.23,3.488,7.056,3.566,11.496c4.912,2.872,8.699,6.458,11.354,10.748c2.656,4.289,3.986,8.875,3.986,13.751
			c0,7.18-2.582,13.149-7.732,17.893c3.406,2.311,6.135,5.463,8.187,9.473c2.05,4.009,3.08,8.078,3.08,12.212
			c0,6.405-2.3,11.816-6.884,16.238c-4.59,4.417-9.998,6.63-16.213,6.63c-2.682,0-5.58-0.524-8.703-1.571
			c0.483,1.618,0.728,3.441,0.728,5.484c0,4.961-1.96,9.188-5.878,12.666c-3.919,3.479-8.394,5.223-13.43,5.223
			c-3.784,0-7.481-0.889-11.094-2.646c-3.615-1.761-6.374-3.95-8.28-6.558c-1.908-2.61-2.86-4.397-2.86-5.354l0.267-0.387
			l0.46,0.572c0.774,2.006,2.197,4.135,4.257,6.373c2.062,2.243,4.768,4.002,8.088,5.283c3.326,1.286,6.504,1.928,9.552,1.928
			c4.495,0,8.496-1.744,11.967-5.235c3.494-3.495,5.245-7.56,5.245-12.21c0-1.949-0.312-3.859-0.92-5.732
			c-2.553-1.216-4.58-2.584-6.082-4.107c-1.5-1.525-2.253-2.959-2.253-4.307c0-0.746,0.431-1.111,1.28-1.111
			c1.053,0,2.475,0.814,4.254,2.451c1.783,1.629,3.229,3.795,4.318,6.49c3.17,1.09,6.455,1.633,9.854,1.633
			c4.986,0,9.594-2.039,13.804-6.129c4.222-4.08,6.328-9.727,6.328-16.932c0-3.488-0.903-7.109-2.713-10.868
			c-1.8-3.754-4.214-6.653-7.208-8.698c-1.459,1.134-2.918,2.021-4.381,2.677c-1.582,0.695-3.915,1.353-7.008,1.955
			c-0.439,0.088-1.275,0.133-2.496,0.133c-2.221,0-4.45-0.391-6.656-1.172c-2.21-0.791-3.887-1.683-5.016-2.679v1.374
			c1.045,0.215,1.578,0.735,1.578,1.562c0,0.391-0.176,0.744-0.519,1.05c-0.346,0.312-0.705,0.462-1.062,0.462v4.473
			c0,0.758-0.135,1.133-0.396,1.133c-0.228,0-0.33-0.33-0.33-0.987v-4.544c-0.373,0-0.727-0.156-1.073-0.467
			c-0.354-0.306-0.525-0.654-0.525-1.051c0-0.826,0.525-1.354,1.6-1.574V116.79c0-0.69-0.101-1.271-0.248-1.73
			c-0.178-0.458-0.253-0.861-0.253-1.202c0-0.526,0.159-0.916,0.501-1.171v-0.662c-1.027-0.305-1.537-0.934-1.537-1.892
			c0-0.389,0.16-0.78,0.491-1.176c0.323-0.39,0.673-0.584,1.046-0.584v-0.655c-0.342-0.257-0.501-0.652-0.501-1.172
			c0-0.396,0.075-0.818,0.253-1.279c0.147-0.453,0.248-1.005,0.248-1.66V100.8c0-0.699,0.121-1.045,0.376-1.045
			c0.235,0,0.351,0.347,0.351,1.045v2.806c0,0.655,0.065,1.207,0.231,1.66c0.163,0.461,0.251,0.884,0.251,1.279
			c0,0.521-0.169,0.915-0.482,1.172v0.655c0.355,0,0.703,0.194,1.027,0.584c0.326,0.396,0.488,0.787,0.488,1.176
			c0,0.958-0.508,1.586-1.516,1.892v0.662c0.312,0.255,0.481,0.645,0.481,1.171c0,0.341-0.088,0.744-0.251,1.202
			c-0.166,0.459-0.23,1.04-0.23,1.73v9.799l0.418,0.323c3.176,2.174,6.729,3.267,10.672,3.267c1.377,0,2.377-0.045,2.988-0.129
			c1.633-0.225,3.889-0.859,6.765-1.915c1.226-0.438,2.539-1.19,3.971-2.247c-2.2-1.36-4.393-2.045-6.587-2.045
			c-2.809,0-4.824,0.128-6.04,0.392c-1.209,0.261-1.946,0.389-2.192,0.389c-0.369,0-0.551-0.128-0.551-0.389l2.258-0.639
			c2.155-0.397,4.062-0.604,5.732-0.604h0.546c2.681,0,5.267,0.749,7.745,2.229c4.967-4.489,7.439-10.276,7.439-17.371
			c0-4.652-1.26-8.986-3.758-12.991c-2.504-3.999-6.08-7.292-10.721-9.853c-0.294,2.475-1.162,4.75-2.624,6.82
			c-1.464,2.067-3.207,3.446-5.237,4.145C144.213,96.751,141.755,96.448,139.199,95.055z M126.737,106.415
			c1.33,3.255,1.994,6.753,1.994,10.489c0,7.123-2.069,12.909-6.195,17.37c-4.132,4.449-8.59,6.677-13.366,6.677
			c-3.242,0-5.854-0.806-7.834-2.417c-1.983-1.609-2.981-3.525-2.981-5.741c0-1.656,0.44-3.01,1.322-4.051
			c0.871-1.044,2.032-1.566,3.461-1.566c3.423,0,5.134,1.548,5.134,4.669c0,1.207-0.37,2.209-1.111,3.012
			c-0.74,0.802-1.622,1.201-2.653,1.201c-1.362,0-2.646-0.523-3.834-1.57c0,1.72,0.771,3.099,2.316,4.13
			c1.544,1.034,3.739,1.544,6.597,1.544c2.843,0,5.739-1.67,8.692-5.016c2.949-3.34,4.426-8.167,4.426-14.468
			c0-5.264-1.156-9.845-3.476-13.758c-2.302-3.91-5.557-6.66-9.735-8.278l-0.789-0.259c-1.744-0.739-3.974-1.108-6.696-1.108
			c-4.751,0-8.53,1.345-11.346,4.032c-2.833,2.688-4.237,5.673-4.237,8.965c0,0.39-0.354,0.585-1.064,0.585
			c-0.664,0-1.005-0.526-1.005-1.568c0-4.83,1.962-8.867,5.882-12.107c3.916-3.244,8.898-4.864,14.946-4.864
			c1.666,0,3.453,0.219,5.361,0.652l0.726,0.129c6.859,1.959,11.896,6.139,15.11,12.534c2.799-3.561,7.092-7.114,12.86-10.637
			c0.327-0.216,0.565-0.371,0.739-0.461c3.367-2.217,5.771-4.505,7.193-6.864l0.551-0.64l0.545,0.13
			c0,0.604-0.649,1.648-1.951,3.132c-1.293,1.479-1.944,2.331-1.944,2.549c0,0.784,0.504,1.634,1.522,2.55l0.729,0.52
			c4.38,2.923,6.568,6.131,6.568,9.626c0,4.446-2.188,8.744-6.568,12.888c2.428,0.92,4.627,2.44,6.568,4.569
			c0.164,0.179,0.429,0.482,0.791,0.92c1.176,1.394,2.055,2.812,2.621,4.241l0.359,0.846c0.646,1.825,0.973,3.699,0.973,5.617
			c0,5.053-1.648,9.312-4.959,12.793c-3.304,3.483-7.371,5.224-12.197,5.224c-2.725,0-5.161-0.945-7.334-2.839
			c-2.164-1.892-3.258-4.149-3.258-6.756c0-1.604,0.436-3.044,1.307-4.308c0.878-1.267,2.042-2.109,3.513-2.549l0.775-0.125
			l0.979-0.135c1.539,0,2.8,0.492,3.771,1.479c0.977,0.982,1.466,2.25,1.466,3.772c0,1.45-0.382,2.603-1.145,3.456
			c-0.771,0.854-1.795,1.286-3.082,1.286c-2.537,0-3.805-1.39-3.805-4.149c0-1.849,1.189-2.996,3.579-3.427
			c0-0.743-0.761-1.112-2.278-1.112c-1.252,0-2.289,0.631-3.103,1.895c-0.835,1.263-1.244,2.722-1.244,4.369
			c0,2.093,0.922,3.976,2.769,5.65c1.843,1.676,3.856,2.517,6.057,2.517c3.408,0,6.006-1.648,7.787-4.946
			c1.783-3.286,2.676-7.681,2.676-13.181c0-1.08-0.076-1.933-0.239-2.55l-0.118-0.914c-0.213-1.784-0.834-3.701-1.896-5.755
			l-0.483-0.656c-0.69-1.439-1.635-2.66-2.859-3.662c-2.75,2.004-5.174,2.999-7.236,2.999c-0.409,0-0.938-0.1-1.592-0.317
			l-0.775-0.4c-0.342-0.345-0.501-0.78-0.501-1.305c0-0.737,0.159-1.283,0.501-1.628l0.775-0.789
			c1.183-0.781,3.052-1.173,5.605-1.173c0.885,0,2.127,0.175,3.711,0.522c1.619-2.052,2.434-4.104,2.434-6.153
			c0-1.527-0.355-3.013-1.07-4.454c-0.719-1.438-2.023-2.858-3.914-4.254c-1.892-1.397-3.068-2.411-3.514-3.05
			c-0.453-0.63-0.951-1.56-1.488-2.776c-0.354,0-1.617,0.803-3.764,2.427C131.637,101.266,129.291,103.521,126.737,106.415z
			 M89.407,118.356c2.319,2.048,5.34,3.07,9.071,3.07c2.317,0,4.117-0.506,5.424-1.524c1.296-1.032,1.946-2.389,1.946-4.087
			c0-2.658-1.868-3.983-5.608-3.983C96.192,111.832,92.575,114.006,89.407,118.356z M93.428,154.646
			c0-3.276,1.908-6.267,5.721-8.979c3.81-2.712,8.276-4.064,13.39-4.064c5.276,0,9.644,1.695,13.086,5.082l0.613,0.463
			c0.401,0,1.433-1.148,3.099-3.455c0.241,0,0.367,0.168,0.367,0.521c0,0.392-0.646,1.325-1.931,2.806
			c-1.283,1.479-2.761,2.736-4.427,3.789c-3.831,2.33-6.419,4.613-7.764,6.853l-0.244,0.261l-0.367-0.261c0-0.735,1.66-2.668,5-5.81
			c0-0.65-1.153-1.705-3.445-3.166c-2.287-1.461-5.469-2.188-9.526-2.188c-3.69,0-6.734,0.736-9.122,2.217
			c-2.399,1.479-3.603,3.501-3.603,6.074c0,0.65-0.148,0.975-0.447,0.975C93.566,155.762,93.428,155.391,93.428,154.646z
			 M94.275,154.736c0,2.644,1.129,4.898,3.362,6.772c2.239,1.867,5.37,2.81,9.399,2.81h1.467c0.529-1.183,1.226-2.114,2.074-2.81
			c0.855-0.692,1.667-1.047,2.441-1.047c1.178,0,1.777,0.437,1.777,1.302c0,1.653-1.585,2.734-4.753,3.254
			c-0.24,0.779-0.362,1.756-0.362,2.93c0,2.685,1.249,5.016,3.769,6.99c2.519,1.971,5.276,2.963,8.282,2.963
			c2.674,0,5.191-0.832,7.541-2.485l0.73-0.453l0.24,0.261c0,0.392-0.887,1.064-2.672,2.023c-1.78,0.955-3.816,1.434-6.088,1.434
			c-3.284,0-6.348-1.154-9.19-3.447c-2.834-2.291-4.257-5.102-4.257-8.428c0-0.484,0.085-1.043,0.236-1.699h-1.087
			c-4.35,0-7.717-1.004-10.134-3.024c-2.42-2.017-3.624-4.507-3.624-7.489c0-0.652,0.138-0.986,0.401-0.986
			C94.127,153.604,94.275,153.99,94.275,154.736z M110.346,163.992c1.141-0.127,2.037-0.381,2.708-0.748
			c0.672-0.376,1.007-0.73,1.007-1.088c0-0.555-0.324-0.844-0.972-0.844C111.99,161.312,111.078,162.204,110.346,163.992z
			 M153.809,82.65c-0.125-4.085-1.304-7.628-3.557-10.646c-2.245-3.003-4.971-5.178-8.171-6.522l-0.853,0.194
			c-0.48,0-0.83-0.257-1.035-0.783h-0.359l-0.73,0.46c-0.246,0-0.526-0.201-0.845-0.59h-0.675c-0.236,1.048-0.688,1.568-1.339,1.568
			c-0.683,0-1.231-0.476-1.638-1.438c-0.236,0.436-0.562,0.655-0.976,0.655c-0.28,0-0.562-0.086-0.847-0.259l-0.303,0.13
			c0,0.781-0.48,1.175-1.461,1.175l-0.733-0.195c-5.582,3.11-8.372,8.01-8.372,14.685v0.393c4.613-2.35,9.268-3.527,13.963-3.527
			C142.081,77.951,148.055,79.517,153.809,82.65z M126.352,90.094c0-0.868-0.383-1.947-1.166-3.228
			c-0.779-1.282-1.831-2.495-3.154-3.625c0.243,2.307,0.712,4.129,1.416,5.48c0.695,1.351,1.505,2.029,2.425,2.029
			C126.197,90.751,126.352,90.53,126.352,90.094z M139.322,166.535c-0.859-2.217-1.922-3.994-3.195-5.318
			c-1.277-1.326-2.285-1.994-3.01-1.994c-0.543,0-0.801,0.221-0.801,0.656c0,0.998,0.619,2.112,1.857,3.332
			C135.414,164.43,137.131,165.532,139.322,166.535z M143.643,119.468c-1.172-0.737-2.371-1.112-3.621-1.112
			c-1.207,0-2.203,0.257-2.991,0.753c-0.788,0.504-1.177,1.098-1.177,1.797c0,0.87,0.557,1.309,1.686,1.309
			C139.555,122.215,141.584,121.297,143.643,119.468z"/>
	</g>
</g>
</svg>
